<svg xmlns="http://www.w3.org/2000/svg" 
    xmlns:xlink="http://www.w3.org/1999/xlink" 
    version="1.1" x="0px" y="0px" 
    viewBox="1 14 63 37" 
    enable-background="new 0 0 100 100" 
    xml:space="preserve">
<path fill="#ec9b3b" 
d="M62.856,32.585c-0.109-0.136-0.129-0.412-0.15-0.704c-0.029-0.412-0.063-0.878-0.403-1.299  c-0.359-0.361-0.843-0.38-1.23-0.395c-0.135-0.005-0.328-0.013-0.396-0.017c-0.099-0.217-0.317-0.763-0.482-1.177  c-0.539-1.348-0.572-1.404-0.72-1.547c-0.376-0.3-0.851-0.341-1.307-0.341l-0.374,0.003c-0.186,0-0.395-0.007-0.6-0.071  c-0.555-0.111-1.479-0.388-1.884-0.646c0.009,0.003,0.006-0.007-0.017-0.049c-0.062-0.128-0.227-0.467-0.615-0.467  c-0.065,0-0.191,0.029-0.252,0.054c-0.366,0.151-0.792,0.379-0.839,0.814c-0.014,0.132,0.01,0.246,0.054,0.345  c-0.104,0.014-0.226,0.028-0.366,0.043c-0.084,0-0.265-0.058-0.369-0.163c-0.058-0.057-0.092-0.193-0.127-0.336  c-0.061-0.244-0.137-0.547-0.443-0.847c-0.201-0.151-0.495-0.248-0.798-0.333c0.132-0.043,0.25-0.061,0.357-0.076  c0.2-0.029,0.504-0.072,0.66-0.37c0.19-0.365,0.033-0.692-0.56-1.878c-0.123-0.415-0.799-0.532-1.141-0.188  c-0.037,0.038-0.068,0.081-0.093,0.128c-0.086,0.172-0.099,0.355-0.109,0.503c-0.001,0.01-0.001,0.021-0.002,0.031  c-0.135,0.015-0.323-0.013-0.489-0.038c-0.384-0.058-0.723-0.046-1.11,0.022c-0.159,0.028-0.321,0.06-0.476,0.06  c-0.052,0-0.104-0.012-0.101-0.003c-0.243-0.081-0.609-0.297-0.997-0.525c-0.887-0.522-1.99-1.172-3.104-1.172  c-0.12,0-0.239,0.008-0.373,0.026c-0.226,0.038-0.406,0.182-0.483,0.386c-0.174,0.458,0.182,0.964,1.096,2.095  c0.128,0.158,0.283,0.351,0.398,0.501c-0.131,0.054-0.313,0.091-0.49,0.126c-0.35,0.07-0.745,0.15-1.102,0.439  c-0.234,0.234-0.315,0.551-0.381,0.805c-0.028,0.114-0.077,0.304-0.07,0.322c-0.095,0.038-0.183,0.057-0.264,0.057  c-0.596,0-1.065-1.128-1.318-1.733c-0.12-0.29-0.207-0.499-0.312-0.638c-0.038-0.051-0.086-0.094-0.141-0.127l-2.087-1.271  c0.137-0.212,0.503-0.466,0.788-0.664c0.563-0.391,1.146-0.795,1.095-1.436c-0.049-0.628-0.712-1.024-1.244-1.278  c-0.134-0.08-0.298-0.121-0.488-0.121c-0.594,0-1.573,0.426-2.215,0.74c-0.01-0.214-0.054-0.474-0.252-0.701  c-0.229-0.333-0.722-0.293-1.095-0.14c-0.046,0.019-0.093,0.039-0.14,0.056c-0.067-0.264-0.194-0.596-0.557-0.865  c-0.697-0.429-1.373-0.458-2.027-0.487c-0.749-0.032-1.456-0.063-2.279-0.73c-0.281-0.205-0.272-0.331-0.254-0.608  c0.047-0.706-0.178-1.204-1.398-1.338c-0.315-0.056-0.573-0.083-0.788-0.083c-0.155,0-0.626,0-0.903,0.341  c-0.269,0.331-0.184,0.735-0.116,1.06c0.047,0.224,0.095,0.456,0.02,0.564c-0.041,0.059-0.195,0.203-0.75,0.285  c-0.162,0.024-0.301,0.125-0.374,0.271l-0.079,0.162c-0.057,0.117-0.134,0.277-0.093,0.284c-0.038,0-0.073,0.004-0.11,0.012  c-0.272,0-0.984-0.877-1.367-1.349c-0.757-0.933-1.472-1.814-2.286-1.814c-0.591,0-1.047,0.442-1.35,1.296  c-0.271,0.678,0.463,1.077,0.96,1.342c-0.572,0.349-1.242,0.563-1.894,0.771c-0.631,0.201-1.283,0.41-1.82,0.724  c-0.365,0.183-0.379,0.576-0.379,0.785c-0.222,0.054-0.562,0.035-0.873,0.008c-0.189-0.016-0.375-0.031-0.551-0.031  c-0.292,0-0.722,0.035-1.073,0.327c-0.391,0.312-0.499,0.747-0.586,1.096c-0.023,0.091-0.043,0.172-0.066,0.243  c-0.13-0.117-0.301-0.219-0.523-0.219c-0.037,0-0.134,0.014-0.17,0.022c-0.771,0.171-1.114,0.804-1.39,1.312  c-0.145,0.267-0.281,0.519-0.435,0.638c-0.052,0-0.146-0.021-0.23-0.04c-0.134-0.03-0.286-0.063-0.447-0.063  c-0.318,0-0.521,0.136-0.558,0.187c-0.378,0.251-0.378,0.686-0.378,0.945c0,0.084,0,0.226-0.011,0.263  c-0.182,0-0.539-0.185-0.775-0.307c-0.295-0.153-0.524-0.271-0.807-0.256c-2.297,0.368-3.082,1.863-3.71,3.256  c-0.073-0.164-0.166-0.313-0.291-0.425c-0.413-0.505-1.088-0.639-1.699-0.759c-0.036-0.008-0.148-0.021-0.185-0.021  c-0.298,0-0.545,0.183-0.629,0.465c-0.278,0.941,1.735,3.737,3.579,4.931c0.056,0.028,0.138,0.059,0.236,0.092  c0.328,0.111,0.5,0.199,0.533,0.394c0.097,0.45,0.036,0.484-0.3,0.676c-0.322,0.185-0.809,0.463-0.925,1.125  c-0.247,0.743,2.568,4.92,2.6,4.952c1.1,1.101,1.788,1.165,2.34,1.218c0.365,0.035,0.586,0.056,0.965,0.436  c0.288,0.287,0.466,0.679,0.655,1.093c0.229,0.502,0.466,1.021,0.956,1.438c0.424,0.304,1.013,0.626,1.638,0.968  c1.562,0.854,3.505,1.918,3.965,3.232c0.068,0.194,0.249,0.327,0.454,0.335c0.424,0.229,0.831,0.562,1.26,0.91  c0.872,0.71,1.772,1.443,2.975,1.443c0.369,0,0.748-0.072,1.071-0.199c0.461-0.116,0.614-0.549,0.705-0.808  c0.009-0.025,0.02-0.057,0.031-0.087c0.174,0.048,0.384,0.17,0.59,0.289c0.454,0.264,1.033,0.553,1.581,0.394  c0.162-0.047,0.29-0.172,0.34-0.333l0.734-2.382c0.069,0.022,0.148,0.054,0.214,0.08c0.186,0.075,0.378,0.152,0.582,0.152  c0.239,0,0.449-0.11,0.514-0.226c0.234-0.233,0.266-0.579,0.23-2.469c-0.006-0.328-0.015-0.748-0.023-0.951  c0.126,0.003,0.301,0.05,0.489,0.129c0,0.202,0.003,0.614,0.38,0.803c0.069,0.035,0.146,0.053,0.224,0.053  c0.41,0,0.737-0.218,1-0.394c0.167-0.11,0.339-0.226,0.446-0.226c1.516,0,2.861,0.624,4.286,1.285  c1.21,0.562,2.462,1.143,3.872,1.296c0.135,0,0.282,0.029,0.434,0.057c0.36,0.065,0.736,0.107,1.031,0.032  c0.036-0.009,0.07-0.021,0.103-0.038c0.427-0.213,0.69-0.584,0.903-0.882c0.14-0.195,0.283-0.396,0.375-0.43  c0.234,0,0.702,0.381,1.012,0.633c0.365,0.298,0.681,0.555,1.101,0.628c0.294,0,0.523-0.169,0.726-0.318  c0.039-0.028,0.089-0.064,0.124-0.093c0.406,0.371,0.406,0.643,0.406,0.737c0,0.252,0.188,0.465,0.438,0.496  c0.259,0.035,0.485-0.13,0.547-0.373c0.809-3.181,2.023-2.909,3.391-2.846c1.379,0.064,2.998,0.175,4.597-1.853  c0.207-0.311,0.164-0.656,0.132-0.909c-0.01-0.082-0.025-0.206-0.043-0.206h-0.001c0.04-0.054,0.222-0.09,0.368-0.119  c0.297-0.06,0.704-0.141,0.974-0.5c0.039-0.052,0.067-0.111,0.084-0.175c0.573-2.221,0.757-2.972,0.815-3.249  c0.677-1.143,2.326-2.337,4.903-3.55c0.139-0.065,0.239-0.19,0.274-0.34C62.987,32.862,62.952,32.705,62.856,32.585z"/></svg>