<svg xmlns="http://www.w3.org/2000/svg" data-name="Layer 1" viewBox="0 0 100 125" x="0px" y="0px"><title>07</title><g data-name="Group"><path data-name="Compound Path" d="M17.4,50.9,15.8,52a20.3,20.3,0,0,0,7.9,37.1l53.3,8.4h.5a3.5,3.5,0,0,0,2.8-1.4L93.6,78.2a21.2,21.2,0,0,0,4.3-14,20.5,20.5,0,0,0-40.9,0,21.2,21.2,0,0,0,4.3,14l8.2,11-44.8-7a13.3,13.3,0,0,1-5.2-24.4l4.1-2.7A3.5,3.5,0,0,0,25.3,54L38.7,36.1a21.2,21.2,0,0,0,4.3-14A20.8,20.8,0,0,0,22.5,2.5,20.8,20.8,0,0,0,2,22.1a21.2,21.2,0,0,0,4.3,14ZM66.9,74A14.2,14.2,0,0,1,64,64.7c.4-6.4,5.6-13,13.5-13s13.1,6.6,13.5,13A14.2,14.2,0,0,1,88,74L77.5,88.2ZM9,22.5c.4-6.4,5.6-13,13.5-13s13.1,6.6,13.5,13a14.2,14.2,0,0,1-2.9,9.4L22.5,46,12,31.9A14.2,14.2,0,0,1,9,22.5Z"/><path data-name="Compound Path" d="M22.5,32.5a9.8,9.8,0,1,0-9.8-9.8A9.8,9.8,0,0,0,22.5,32.5Zm0-12.6a2.8,2.8,0,1,1-2.8,2.8A2.8,2.8,0,0,1,22.5,19.9Z"/><path data-name="Compound Path" d="M87.2,64.8a9.8,9.8,0,1,0-9.8,9.8A9.8,9.8,0,0,0,87.2,64.8Zm-12.5,0a2.8,2.8,0,1,1,2.8,2.8A2.8,2.8,0,0,1,74.7,64.8Z"/></g><text x="0" y="115" fill="#000000" font-size="5px" font-weight="bold" font-family="'Helvetica Neue', Helvetica, Arial-Unicode, Arial, Sans-serif">Created by Jugalbandi</text><text x="0" y="120" fill="#000000" font-size="5px" font-weight="bold" font-family="'Helvetica Neue', Helvetica, Arial-Unicode, Arial, Sans-serif">from the Noun Project</text></svg>