<svg version="1.2" baseProfile="tiny" xmlns="http://www.w3.org/2000/svg" viewBox="0 0 254 250.7" overflow="visible"><path fill="none" d="M123.4-4.3v256M-4.6 123.7h256"/><g><path fill="#444" d="M66.5 250.7c-6.4 0-11.4-3.7-20.9-15.2-6.1-7.4-12.9-17-19.1-26.9C14.4 189.5 0 162.7 0 143.2c0-36.7 29.9-66.5 66.5-66.5 36.7 0 66.5 29.9 66.5 66.5 0 22.4-16.8 53-24 65.1-6.3 10.6-13.1 20.3-19.3 27.4-8.8 10.4-16 15-23.2 15zm0-149.1c-22.9 0-41.5 18.6-41.5 41.5 0 9.4 7.5 27.3 20.1 47.9 8.8 14.4 17.4 25.8 22.7 31.8 5-5.1 13.3-15.7 22.2-31.3 11-19.4 18.2-38.4 18.2-48.3-.1-22.9-18.7-41.6-41.7-41.6zM205.4 124.5c-4.2 0-11.2 0-30.2-30.1-8.4-13.2-18.4-31.9-18.4-45.9 0-26.8 21.8-48.6 48.6-48.6C232.2 0 254 21.8 254 48.6c0 16-11.6 37.2-16.6 45.6-18 30.3-28.2 30.3-32 30.3zm-3.9-24zm3.9-75.5c-13 0-23.6 10.6-23.6 23.6 0 10.3 15.1 35.1 24.5 47 8.8-10.9 22.7-35.5 22.7-47 0-13-10.6-23.6-23.6-23.6zM150.4 188.7c-3.2 0-6.4-1.2-8.8-3.7-4.9-4.9-4.9-12.8 0-17.7l34-34c4.9-4.9 12.8-4.9 17.7 0 4.9 4.9 4.9 12.8 0 17.7l-34 34c-2.5 2.5-5.7 3.7-8.9 3.7z"/></g></svg>