<svg xmlns="http://www.w3.org/2000/svg" xmlns:xlink="http://www.w3.org/1999/xlink" version="1.1" viewBox="0 0 258.67 320" style="enable-background:new 0 0 258.67 256;" xml:space="preserve" x="0px" y="0px" overflow="visible"><g><line style="" x1="128" y1="0" x2="127.999" y2="256" fill="none"/><line style="" x1="0" y1="128" x2="256" y2="128" fill="none"/></g><g><path style="" d="M125.236,147.486c0,29.85-41.282,94.999-54.047,94.999   c-6.507,0-54.048-65.149-54.048-94.999s24.198-54.047,54.048-54.047C101.039,93.439,125.236,117.637,125.236,147.486z" fill="none" stroke="#000000" stroke-width="25"/><path style="" d="M246.17,52.901c0,19.937-27.57,63.449-36.098,63.449   c-4.346,0-36.098-43.512-36.098-63.449c0-19.936,16.162-36.098,36.098-36.098C230.01,16.803,246.17,32.965,246.17,52.901z" fill="none" stroke="#000000" stroke-width="25"/><line style="" x1="155" y1="180.485" x2="189" y2="146.485" fill="none" stroke="#000000" stroke-width="25" stroke-linecap="round"/></g><text x="0" y="271" fill="#000000" font-size="5px" font-weight="bold" font-family="'Helvetica Neue', Helvetica, Arial-Unicode, Arial, Sans-serif">Created by Seanau</text><text x="0" y="276" fill="#000000" font-size="5px" font-weight="bold" font-family="'Helvetica Neue', Helvetica, Arial-Unicode, Arial, Sans-serif">from the Noun Project</text></svg>