<svg xmlns="http://www.w3.org/2000/svg" xmlns:xlink="http://www.w3.org/1999/xlink" xml:space="preserve" version="1.1" style="shape-rendering:geometricPrecision;text-rendering:geometricPrecision;image-rendering:optimizeQuality;" viewBox="0 0 846.66 1058.325" x="0px" y="0px" fill-rule="evenodd" clip-rule="evenodd"><defs><style type="text/css">
   
    .fil0 {fill:black;fill-rule:nonzero}
   
  </style></defs><g><path class="fil0" d="M585.53 402.39l-156.17 0c-55.3,0 -51.14,112.75 1.37,112.75l79.67 0.13c99.83,10.51 101.44,169.43 -28.09,169.43l-267.13 0c-5.73,9.58 -10.98,18.2 -15.5,25.55 -36.73,-59.74 -121.68,-203.56 -121.68,-261.93 0,-63.27 61.56,-110.42 121.68,-110.42 60.12,0 121.67,47.15 121.67,110.42 0,44.42 -49.18,138.3 -88.88,206.98l249.84 0c92.16,0 88.19,-103.04 25.99,-110.77l-77.57 0c-91.28,0 -96.07,-171.55 -1.37,-171.55l140.86 0c-24.84,-49.27 -44.9,-97.81 -44.9,-126.19 0,-63.24 61.55,-110.38 121.68,-110.38 60.1,0 121.66,47.14 121.66,110.38 0,58.4 -84.95,202.22 -121.66,261.95 -15.32,-24.92 -39.04,-64.48 -61.47,-106.35zm-385.85 -16.25c35.97,0 65.36,29.39 65.36,65.37 0,35.97 -29.39,65.37 -65.36,65.37 -35.95,0 -65.37,-29.4 -65.37,-65.37 0,-35.98 29.42,-65.37 65.37,-65.37zm0 29.39c-19.9,0 -35.95,16.09 -35.95,35.98 0,19.92 16.05,35.97 35.95,35.97 19.91,0 35.97,-16.05 35.97,-35.97 0,-19.89 -16.06,-35.98 -35.97,-35.98zm0 -48.23c-44.02,0 -92.25,34.04 -92.25,81.02 0,43.32 64.47,157.89 92.25,205.27 27.79,-47.38 92.27,-161.95 92.27,-205.27 0,-46.98 -48.23,-81.02 -92.27,-81.02zm447.32 -182.66c35.97,0 65.36,29.41 65.36,65.38 0,35.95 -29.39,65.34 -65.36,65.34 -35.98,0 -65.38,-29.39 -65.38,-65.34 0,-35.97 29.4,-65.38 65.38,-65.38zm0 29.41c-19.93,0 -35.98,16.04 -35.98,35.97 0,19.89 16.05,35.95 35.98,35.95 19.9,0 35.97,-16.06 35.97,-35.95 0,-19.93 -16.07,-35.97 -35.97,-35.97zm0 -48.25c-44.05,0 -92.29,34.03 -92.29,80.99 0,43.35 64.5,157.92 92.29,205.29 27.77,-47.37 92.27,-161.94 92.27,-205.29 0,-46.96 -48.23,-80.99 -92.27,-80.99z"/></g><text x="0" y="861.66" fill="#000000" font-size="5px" font-weight="bold" font-family="'Helvetica Neue', Helvetica, Arial-Unicode, Arial, Sans-serif">Created by dewadesign</text><text x="0" y="866.66" fill="#000000" font-size="5px" font-weight="bold" font-family="'Helvetica Neue', Helvetica, Arial-Unicode, Arial, Sans-serif">from the Noun Project</text></svg>