<svg version="1.2" baseProfile="tiny" xmlns="http://www.w3.org/2000/svg" viewBox="0 0 56.5 95" overflow="visible"><path fill="#444" d="M52.6.2c-9.4 4.2-15.7 13.4-16.1 23.9l-.8 22c-.1 3.9 3 7.1 6.9 7.1h2.7l-5.1 32.4c-.8 4.9 3.1 9.4 8.1 9.4 4.5 0 8.2-3.7 8.2-8.2V2.7c-.1-2-2.1-3.3-3.9-2.5zM24.1 0c-1.6 0-2.9 1.3-2.9 2.9v22c0 .8-.7 1.5-1.5 1.5h-1.8c-.8 0-1.5-.7-1.5-1.5v-22c0-1.6-1.3-2.9-2.9-2.9-1.6 0-2.9 1.3-2.9 2.9v22c0 .8-.7 1.5-1.5 1.5H7.3c-.8 0-1.5-.7-1.5-1.5v-22C5.8 1.3 4.5 0 2.9 0S0 1.3 0 2.9v25.8c0 3.8 3 6.8 6.8 6.8h1.4L5.1 86.3C4.8 91 8.6 95 13.3 95h.2c4.7 0 8.5-4 8.2-8.7l-3-50.8h1.5c3.8 0 6.8-3 6.8-6.8V2.9C27 1.3 25.7 0 24.1 0z"/></svg>