<svg version="1.2" baseProfile="tiny" xmlns="http://www.w3.org/2000/svg" viewBox="0 0 398 472" overflow="visible"><path d="M0 395h398V277H0v118zm241.4-90.2c-.7-1-1-2.2-1.1-3.4 0-4.2 5.5-7.3 10-7.3 2.2 0 4.3 1.3 5.2 3.4l16.3 29.4 16.3-29.4c1.2-2 2.8-3.4 5.3-3.4 4.4 0 10 3.1 10 7.3 0 1.2-.4 2.4-1.1 3.4l-20 33.7 20.8 33.8c.5.9.8 1.9.8 2.9 0 4.3-5.9 7.8-10.2 7.8-1.8 0-3.4-1-4.2-2.5l-17.6-30.8-17.5 30.8c-.9 1.6-2.5 2.5-4.3 2.5-4.2 0-10.2-3.5-10.2-7.8.1-1 .4-2 1-2.9l20.8-33.8-20.3-33.7zm-74.4-5.3c0-2.5 2.7-4.5 6.3-4.5h24.1c15.2 0 27.6 7 27.6 26.7v.7c0 19.7-12.7 27.6-28.5 27.6H183v27.5c0 3.2-4.2 4.9-8 4.9-4 0-8-1.7-8-4.9v-78zm-80 22.7c0-20 12.2-27.5 27.5-27.5 16.6 0 28.6 8.6 28.6 23 0 6-2.7 7.4-7.8 7.4-4.2 0-7.7-1.2-7.9-4.9-.4-5.6-2.4-11.9-12.6-11.9-8 0-12.8 4.4-12.8 13.8v33.5c0 9.4 4.5 13.8 12.4 13.8 7.8 0 12.6-4.4 12.6-13.8V349h-9.2c-3.1 0-4.8-3.4-4.8-6.5 0-3 1.7-6.5 4.8-6.5h20.4c3.1 0 4.8 2.7 4.8 5.4v14.3c0 20-12.2 27.5-28.1 27.5S87 375.7 87 355.7v-33.5zM374 439v-28H24v28c0 18.2 14.3 33 31.4 33h287.2c17.2 0 31.4-14.8 31.4-33zM24 261h350V118h-86.6c-19.1-.1-34.5-15.8-34.4-34.9V0H55.4C38.3 0 24 14.8 24 33v228z"/><path d="M269 83.1c-.1 10.3 8.1 18.7 18.4 18.9h75.2L269 10.9v72.2zM209 323.6v-1.4c0-9.4-4.7-14.2-12.5-14.2H183v29h13.5c7.8 0 12.5-4 12.5-13.4z"/></svg>