<svg xmlns="http://www.w3.org/2000/svg" data-name="Layer 1" viewBox="0 0 100 125" x="0px" y="0px"><title>All3</title><path d="M100,50a50,50,0,1,0-50,50A50,50,0,0,0,100,50ZM42.69,38.88a13.6,13.6,0,0,0-.32,1.9,0.45,0.45,0,0,1-.56.49c-1.22,0-2.44,0-3.65,0H34.41c-0.23,0-.4,0-0.39-0.32a19.08,19.08,0,0,1,1.56-7.39,13.72,13.72,0,0,1,6.62-6.62,19.34,19.34,0,0,1,15.1-.74A12.4,12.4,0,0,1,65,33.4a14.39,14.39,0,0,1,.86,6.8,11.39,11.39,0,0,1-3.66,7.38c-1.6,1.55-3.32,3-5,4.45a9.38,9.38,0,0,0-3,3.8,12.55,12.55,0,0,0-.66,3.67c0,0.44-.07.89-0.09,1.33a0.29,0.29,0,0,1-.33.33H46.53a0.25,0.25,0,0,1-.31-0.29,27.64,27.64,0,0,1,.66-6.44,12.09,12.09,0,0,1,3.64-5.67c1.48-1.37,3-2.75,4.36-4.2a8.55,8.55,0,0,0,2.33-4.38c0.54-2.81-.51-4.89-3.2-5.87a10.2,10.2,0,0,0-8,.29A6.05,6.05,0,0,0,42.69,38.88Zm2.82,31.48a4.4,4.4,0,0,1,8.8.14A4.4,4.4,0,1,1,45.51,70.36Z"/><text x="0" y="115" fill="#000000" font-size="5px" font-weight="bold" font-family="'Helvetica Neue', Helvetica, Arial-Unicode, Arial, Sans-serif">Created by i cons</text><text x="0" y="120" fill="#000000" font-size="5px" font-weight="bold" font-family="'Helvetica Neue', Helvetica, Arial-Unicode, Arial, Sans-serif">from the Noun Project</text></svg>