<svg version="1.2" baseProfile="tiny" xmlns="http://www.w3.org/2000/svg" viewBox="0 0 100 100" overflow="visible"><path d="M100 50c0-27.6-22.4-50-50-50S0 22.4 0 50s22.4 50 50 50 50-22.4 50-50zM42.7 38.9c-.2.6-.3 1.3-.3 1.9 0 .2-.1.5-.4.5H34.4c-.2 0-.4 0-.4-.3 0-2.5.6-5.1 1.6-7.4 1.4-2.9 3.7-5.3 6.6-6.6 4.7-2.3 10.2-2.6 15.1-.7 3.5 1.1 6.3 3.8 7.7 7.2.8 2.2 1.1 4.5.9 6.8-.3 2.8-1.6 5.5-3.7 7.4-1.6 1.5-3.3 3-5 4.5-1.3 1-2.3 2.3-3 3.8-.4 1.2-.6 2.4-.7 3.7 0 .4-.1.9-.1 1.3 0 .2-.1.3-.2.3H46.5c-.1 0-.3 0-.3-.2V61c0-2.2.2-4.3.7-6.4.7-2.2 1.9-4.2 3.6-5.7 1.5-1.4 3-2.8 4.4-4.2 1.2-1.2 2-2.7 2.3-4.4.5-2.8-.5-4.9-3.2-5.9-2.6-1-5.5-.9-8 .3-1.7.7-2.9 2.3-3.3 4.2zm2.8 31.5c0-2.4 2-4.4 4.5-4.3 2.4 0 4.4 2 4.3 4.5 0 2.4-2 4.4-4.5 4.3-2.4-.1-4.3-2.1-4.3-4.5z"/></svg>