<svg version="1.2" baseProfile="tiny" xmlns="http://www.w3.org/2000/svg" viewBox="0 0 84.9 94.8" overflow="visible"><path d="M84.8 56.4c-.2-1.2-.9-2.2-2-2.8L63.5 44c-2.6 5.3-6 11.9-10.6 19.9-2.2 3.8-6.1 6.1-10.5 6.1s-8.4-2.3-10.6-6.1c-4.2-7.2-7.4-13.2-9.8-18.2l-10.8 1.8c-1.2.2-2.2 1-2.7 2L.3 68c-.8 1.7-.1 3.8 1.5 4.6l39.7 21.8c.5.3 1.1.4 1.7.4.2 0 .5 0 .7-.1l33.9-7c1.1-.2 2-.9 2.5-1.9s.5-2.1.1-3.1l-6.6-14.8 9.9-8.5c.9-.6 1.3-1.8 1.1-3z"/><path d="M46.7 60.4c6.2-10.8 17-30.7 17-39.1C63.7 9.5 54.1 0 42.4 0S21.1 9.6 21.1 21.3c0 8.4 10.8 28.3 17 39.1 1.9 3.3 6.7 3.3 8.6 0zM32.5 21.2c0-5.5 4.5-9.9 9.9-9.9s9.9 4.5 9.9 9.9c0 5.5-4.5 9.9-9.9 9.9s-9.9-4.4-9.9-9.9z"/></svg>