<svg version="1.2" baseProfile="tiny" xmlns="http://www.w3.org/2000/svg" viewBox="0 0 76.4 77.9" overflow="visible"><path fill="#444" d="M70.6 7.4c0 .1-.1.1-.1.2l-4.1 6.9c-.2.3-.5.5-.9.5H64c-2-.4-3.8-1.7-5-3.4-.2-.3-.2-.7 0-1 1-1.4 4-5.6 4.7-7.8C64.5.2 62.3 0 62 0c-3.5-.2-6.9.8-9.6 3-4.2 3.5-5.3 8.3-5.4 13.5.1 2.8-1 5.6-3 7.6-.9.9-22.7 22.6-24.7 24.8-1.7 1.8-4.1 2.8-6.6 2.8-2.9 0-5.7 1-8 2.9-2.5 2.3-3.5 3.6-4.5 8-.9 4.1 1.3 8 1.7 8.7 0 .1.1.1.1.2 1.9 1.8 2.8.2 2.8.2l4.4-6.8c.2-.4.7-.5 1.1-.4l3.7 1.2c.1 0 .3.1.4.2l1.3 1.4c.3.3.3.7.2 1-1 2.1-2.2 4-3.6 5.8-2.1 2.6-.3 3.4 0 3.6h.1c1.1.6 8.2.5 11.6-4.3s2.8-7.3 2.8-10.9c0-3.4 2.8-5.8 3.2-6.1l.1-.1c1-1 20.6-20.6 24.4-24.6s6.6-3.4 6.8-3.4c.3 0 3.8.6 6.2-.4s6.8-5.1 8.5-9.5-.8-9.1-2-11.3c-1.1-2.1-3-.2-3.4.3z"/><path fill="#444" d="M33.1 29.9L22.8 20 19 11.3 5.8 3.9 2 7.8 8.9 22l6.8 2.3 11.4 11.1zM49.9 42.7l-8.6 8.6c-.8.8-.8 2.1 0 2.9l19.2 19.2c.8.8 2.1.8 2.9 0l8.8-8.8c.8-.8.8-2.1 0-2.9l-19.3-19c-.9-.8-2.2-.8-3 0z"/></svg>