<svg version="1.2" baseProfile="tiny" xmlns="http://www.w3.org/2000/svg" viewBox="0 0 18 20" overflow="visible"><path fill="#444" d="M0 8.1l1 7c.1.5.5.9 1 .9h.4l-1.3 2.5c-.2.5 0 1.1.5 1.3.5.2 1 0 1.3-.4l.2-.4h11.8l.2.5c.3.5.9.7 1.4.4.5-.2.7-.8.4-1.3L15.6 16h.4c.5 0 .9-.4 1-.9l1-7v-.2l-1-7c-.1-.5-.5-.9-1-.9H2c-.5 0-.9.4-1 .9l-1 7v.2zM3 12c0-.6.4-1 1-1h1c.6 0 1 .4 1 1s-.4 1-1 1H4c-.5 0-1-.4-1-1zm1.1 5l.5-1h8.8l.5 1H4.1zM7 12c0-.6.4-1 1-1h2c.6 0 1 .4 1 1s-.4 1-1 1H8c-.5 0-1-.4-1-1zm7 1h-1c-.6 0-1-.4-1-1s.4-1 1-1h1c.6 0 1 .4 1 1s-.4 1-1 1zM2.9 2h12.3l.7 5H2.2l.7-5z"/></svg>