<svg xmlns:dc="http://purl.org/dc/elements/1.1/" xmlns:cc="http://creativecommons.org/ns#" xmlns:rdf="http://www.w3.org/1999/02/22-rdf-syntax-ns#" xmlns:svg="http://www.w3.org/2000/svg" xmlns="http://www.w3.org/2000/svg" xmlns:sodipodi="http://sodipodi.sourceforge.net/DTD/sodipodi-0.dtd" xmlns:inkscape="http://www.inkscape.org/namespaces/inkscape" version="1.1" x="0px" y="0px" viewBox="0 0 100 125"><g transform="translate(0,-952.36218)"><path style="text-indent:0;text-transform:none;direction:ltr;block-progression:tb;baseline-shift:baseline;color:#000000;enable-background:accumulate;" d="m 69,974.36224 c -1.61584,0 -2.93577,1.2749 -3,2.875 l -2.125,1.4375 c -0.68901,0.4637 -1.03176,1.3865 -0.8125,2.1875 0.51489,1.8879 0.9583,3.7975 1.40625,5.7188 -4.1085,2.7895 -6.94763,6.9165 -8.5,12.0624 -1.72584,5.72106 -1.9573,12.69006 -0.96875,20.81256 -0.29833,1.0861 -1.03627,1.5509 -2,1.9062 l -22.59375,0 -1.65625,-0.625 c 0.156462,-0.7702 0.25,-1.5601 0.25,-2.375 0,-6.6037 -5.3963,-12 -12,-12 -6.6037,0 -12,5.3963 -12,12 0,6.6038 5.3963,12.0001 12,12.0001 4.378712,0 8.216654,-2.3823 10.3125,-5.9062 0.863424,0.3698 1.734121,0.86 2.6875,0.9062 l 23,0 c 1.66667,0 3.09458,-0.7674 4.15625,-1.8125 1.18886,-1.2779 1.9093,-2.4793 1.84375,-4.3438 -0.97803,-7.8702 -0.72624,-14.4091 0.78125,-19.40625 1.17069,-3.8807 3.0259,-6.8268 5.6875,-9 0.51846,2.1719 1.09166,4.3264 1.75,6.5 C 62.28124,1000.5144 59,1006.0501 59,1012.3622 c 0,9.9175 8.08256,18.0001 18,18.0001 9.91744,0 18,-8.0826 18,-18.0001 0,-9.9174 -8.08256,-17.99995 -18,-17.99995 -2.16432,0 -4.23164,0.4201 -6.15625,1.125 -1.21056,-5.1398 -2.32614,-9.4704 -3.5625,-14.25 l 1.375,-0.9062 c 2.0335,-0.039 3.3023,-1.6052 3.34375,-2.969 0,-1.6569 -1.34315,-3 -3,-3 z m 8,24 c 7.75568,0 14,6.24426 14,13.99996 0,7.7557 -6.24432,14.0001 -14,14.0001 -7.75568,0 -14,-6.2444 -14,-14.0001 0,-4.5509 2.15621,-8.5711 5.5,-11.125 1.34015,3.5767 3.09714,7.1148 5.5625,10.5625 -0.0326,0.1772 -0.0625,0.3759 -0.0625,0.5625 0,1.6569 1.34315,3 3,3 1.65685,0 3,-1.3431 3,-3 0,-1.5587 -1.19843,-2.8224 -2.71875,-2.9688 -2.31868,-3.2633 -3.95925,-6.6352 -5.21875,-10.12496 1.53351,-0.5743 3.19873,-0.9062 4.9375,-0.9062 z m -60,11.99996 c 4.442,0 8,3.558 8,8 0,0.3089 0.0023,0.6068 -0.03125,0.9062 l -5.1875,-2 c -0.432858,-1.1246 -1.504092,-1.9062 -2.78125,-1.9062 -1.656854,0 -3,1.3431 -3,3 0,1.6569 1.343146,3 3,3 0.486421,0 0.937454,-0.1383 1.34375,-0.3438 l 5.15625,1.9689 c -1.445739,2.0332 -3.796417,3.375 -6.5,3.375 -4.442,0 -7.9999996,-3.558 -7.9999996,-8.0001 0,-4.442 3.5579996,-8 7.9999996,-8 z" fill="#000000" fill-opacity="1" stroke="none" marker="none" visibility="visible" display="inline" overflow="visible"/></g></svg>